<mxfile host="app.diagrams.net" modified="2024-03-07T18:03:42.257Z" agent="Mozilla/5.0 (Windows NT 10.0; Win64; x64) AppleWebKit/537.36 (KHTML, like Gecko) Chrome/122.0.0.0 Safari/537.36" etag="mFVZ8lc1jqCgzXY4SsCq" version="24.0.2" type="device">
  <diagram id="Z9zrd96PZsQ0QkyYvwfT" name="Page-1">
    <mxGraphModel dx="1050" dy="569" grid="1" gridSize="10" guides="1" tooltips="1" connect="1" arrows="1" fold="1" page="1" pageScale="1" pageWidth="827" pageHeight="1169" math="0" shadow="0">
      <root>
        <mxCell id="0" />
        <mxCell id="1" parent="0" />
        <mxCell id="CgzHILV7T-rABh-6ToRW-37" value="Prefixes" style="graphMlID=n0;shape=swimlane;startSize=20;fillColor=#b7b69e;strokeColor=#000000;strokeWidth=1.0;align=right;spacingRight=10;fontStyle=1" parent="1" vertex="1">
          <mxGeometry x="430" y="600" width="800" height="260" as="geometry">
            <mxRectangle x="-550" y="110" width="100" height="30" as="alternateBounds" />
          </mxGeometry>
        </mxCell>
        <UserObject label="&lt;b style=&quot;border-color: var(--border-color);&quot;&gt;aff&lt;/b&gt;:&amp;nbsp;https://w3id.org/affectedBy#&lt;br&gt;&lt;b&gt;activitypattern&lt;/b&gt;:http://descartes-core.org/ontologies/activities/1.0/ActivityPattern.owl#&lt;div&gt;&lt;b&gt;dbr&lt;/b&gt;:https://dbpedia.org/resource/&lt;br&gt;&lt;b&gt;cbo&lt;/b&gt;:https://github.com/corrado877/CognitiveBiasOntologies/blob/main/HotHandFallacyOntology/HotHandFallacyOntology.owl&lt;br&gt;&lt;b&gt;cco:&amp;nbsp;&lt;/b&gt;&lt;span style=&quot;text-align: justify; background-color: initial;&quot;&gt;http://purl.org/ontology/cco/core#&lt;/span&gt;&lt;b&gt;&lt;br&gt;&lt;/b&gt;&lt;b&gt;fs&lt;/b&gt;:https://w3id.org/framester/data/framestercore/&lt;/div&gt;&lt;div&gt;&lt;b&gt;fsyn&lt;/b&gt;:https://w3id.org/framester/data/framestersyn/&lt;br&gt;&lt;b style=&quot;border-color: var(--border-color);&quot;&gt;foaf:&amp;nbsp;&lt;/b&gt;&lt;span style=&quot;border-color: var(--border-color); background-color: initial;&quot;&gt;http://xmlns.com/foaf/0.1/&lt;br&gt;&lt;b&gt;parameter&lt;/b&gt;:http://www.ontologydesignpatterns.org/cp/owl/parameter.owl#&lt;br&gt;&lt;b&gt;participation&lt;/b&gt;:&amp;nbsp;http://www.ontologydesignpatterns.org/cp/owl/participation.owl#&lt;br&gt;&lt;/span&gt;&lt;b style=&quot;border-color: var(--border-color);&quot;&gt;partof&lt;/b&gt;:&amp;nbsp;&lt;span style=&quot;border-color: var(--border-color); background-color: initial;&quot;&gt;http://www.ontologydesignpatterns.org/cp/owl/partof.owl#&lt;br&gt;&lt;/span&gt;&lt;b&gt;prov:&lt;/b&gt;http://www.w3.org/ns/prov#&lt;br&gt;&lt;b&gt;rdfs&lt;/b&gt;:http://www.w3.org/2000/01/rdf-schema#&lt;br&gt;&lt;b style=&quot;border-color: var(--border-color);&quot;&gt;xsd:&lt;/b&gt;&lt;span style=&quot;border-color: var(--border-color); background-color: initial;&quot;&gt;http://www.w3.org/2001/XMLSchema#&lt;/span&gt;&lt;/div&gt;" link="http://www.w3.org/2000/01/rdf-schema#" id="OftQGMBIE8UBg3ePWbUr-2">
          <mxCell style="text;whiteSpace=wrap;html=1;" parent="CgzHILV7T-rABh-6ToRW-37" vertex="1">
            <mxGeometry x="10" y="30" width="761" height="180" as="geometry" />
          </mxCell>
        </UserObject>
        <mxCell id="CgzHILV7T-rABh-6ToRW-39" value="ODPs and Ontologies Used" style="graphMlID=n0;shape=swimlane;startSize=20;fillColor=#b7b69e;strokeColor=#000000;strokeWidth=1.0;align=right;spacingRight=10;fontStyle=1" parent="1" vertex="1">
          <mxGeometry x="30" y="678" width="356.42" height="142" as="geometry" />
        </mxCell>
        <mxCell id="CgzHILV7T-rABh-6ToRW-40" value="&lt;ul&gt;&lt;li&gt;Affected By&lt;/li&gt;&lt;li&gt;Activity Pattern&lt;/li&gt;&lt;li&gt;Dbpedia Ontology&lt;/li&gt;&lt;li style=&quot;border-color: var(--border-color);&quot;&gt;Cognitive Characteristic Ontology&lt;/li&gt;&lt;li&gt;Parameter&lt;/li&gt;&lt;li&gt;PartOf&lt;/li&gt;&lt;li&gt;Provenance&lt;/li&gt;&lt;li&gt;Participation&lt;/li&gt;&lt;/ul&gt;" style="text;html=1;strokeColor=none;fillColor=none;align=left;verticalAlign=middle;whiteSpace=wrap;rounded=0;" parent="CgzHILV7T-rABh-6ToRW-39" vertex="1">
          <mxGeometry x="-20" y="8" width="270" height="142" as="geometry" />
        </mxCell>
        <mxCell id="jly2-alAHBMs2acxooKN-1" value="fsyn:Bettor&#xa;(Sports_Bettor)" style="graphMlID=n4;shape=rect;rounded=1;arcsize=30;fillColor=#ffff00;strokeColor=#000000;strokeWidth=1.0;fontStyle=1" parent="1" vertex="1">
          <mxGeometry x="1296.09" y="1270" width="123.91" height="40" as="geometry" />
        </mxCell>
        <mxCell id="jly2-alAHBMs2acxooKN-2" value="fs:Event" style="graphMlID=n4;shape=rect;rounded=1;arcsize=30;fillColor=#ffff00;strokeColor=#000000;strokeWidth=1.0;fontStyle=1" parent="1" vertex="1">
          <mxGeometry x="317" y="1226" width="81.96822102864604" height="44" as="geometry" />
        </mxCell>
        <mxCell id="jly2-alAHBMs2acxooKN-3" value="fs:Sequence&#xa;Â (Football Team Match Bet Series)" style="graphMlID=n4;shape=rect;rounded=1;arcsize=30;fillColor=#ffff00;strokeColor=#000000;strokeWidth=1.0;fontStyle=1" parent="1" vertex="1">
          <mxGeometry x="790" y="1080" width="190" height="54" as="geometry" />
        </mxCell>
        <mxCell id="jly2-alAHBMs2acxooKN-4" value="fs:FutureEvent" style="graphMlID=n4;shape=rect;rounded=1;arcsize=30;fillColor=#ffff00;strokeColor=#000000;strokeWidth=1.0;fontStyle=1" parent="1" vertex="1">
          <mxGeometry x="317" y="1385" width="96.42" height="50" as="geometry" />
        </mxCell>
        <mxCell id="jly2-alAHBMs2acxooKN-5" value="fs:Activity&#xa;(Sport Bets)" style="graphMlID=n4;shape=rect;rounded=1;arcsize=30;fillColor=#ffff00;strokeColor=#000000;strokeWidth=1.0;fontStyle=1" parent="1" vertex="1">
          <mxGeometry x="844.02" y="1270" width="81.96822102864604" height="44" as="geometry" />
        </mxCell>
        <mxCell id="jly2-alAHBMs2acxooKN-6" value="fs:Probability" style="graphMlID=n4;shape=rect;rounded=1;arcsize=30;fillColor=#ffff00;strokeColor=#000000;strokeWidth=1.0;fontStyle=1" parent="1" vertex="1">
          <mxGeometry x="800" y="940" width="120" height="40" as="geometry" />
        </mxCell>
        <mxCell id="jly2-alAHBMs2acxooKN-9" value="" style="graphMlID=e0;rounded=0;endArrow=block;strokeColor=#000080;strokeWidth=1.0;startArrow=oval;startFill=1;endFill=1;exitX=0;exitY=0.5;exitDx=0;exitDy=0;entryX=1;entryY=0.5;entryDx=0;entryDy=0;" parent="1" source="jly2-alAHBMs2acxooKN-1" target="jly2-alAHBMs2acxooKN-5" edge="1">
          <mxGeometry relative="1" as="geometry">
            <mxPoint x="630" y="1133.0818375889874" as="sourcePoint" />
            <mxPoint x="781" y="1133" as="targetPoint" />
          </mxGeometry>
        </mxCell>
        <mxCell id="jly2-alAHBMs2acxooKN-10" value="&lt;span style=&quot;color: rgb(0 , 0 , 128) ; font-family: &amp;quot;dialog&amp;quot; ; font-size: 16px ; background-color: rgb(248 , 249 , 250)&quot;&gt;&lt;b&gt;participation&lt;/b&gt;:isParticipantIn&lt;/span&gt;" style="text;html=1;align=center;verticalAlign=middle;resizable=0;points=[];labelBackgroundColor=#ffffff;" parent="jly2-alAHBMs2acxooKN-9" vertex="1" connectable="0">
          <mxGeometry x="-0.0174" y="2" relative="1" as="geometry">
            <mxPoint as="offset" />
          </mxGeometry>
        </mxCell>
        <mxCell id="jly2-alAHBMs2acxooKN-11" value="" style="graphMlID=e0;rounded=0;endArrow=block;strokeColor=#000080;strokeWidth=1.0;startArrow=oval;startFill=1;endFill=1;exitX=0.5;exitY=0;exitDx=0;exitDy=0;entryX=1;entryY=0.5;entryDx=0;entryDy=0;" parent="1" source="jly2-alAHBMs2acxooKN-1" target="jly2-alAHBMs2acxooKN-3" edge="1">
          <mxGeometry relative="1" as="geometry">
            <mxPoint x="1050" y="1073.0818375889874" as="sourcePoint" />
            <mxPoint x="1201" y="1073" as="targetPoint" />
          </mxGeometry>
        </mxCell>
        <mxCell id="jly2-alAHBMs2acxooKN-12" value="&lt;span style=&quot;color: rgb(0 , 0 , 128) ; font-family: &amp;quot;dialog&amp;quot; ; font-size: 16px ; background-color: rgb(248 , 249 , 250)&quot;&gt;&lt;b&gt;cco&lt;/b&gt;:belief&lt;/span&gt;" style="text;html=1;align=center;verticalAlign=middle;resizable=0;points=[];labelBackgroundColor=#ffffff;" parent="jly2-alAHBMs2acxooKN-11" vertex="1" connectable="0">
          <mxGeometry x="-0.0174" y="2" relative="1" as="geometry">
            <mxPoint as="offset" />
          </mxGeometry>
        </mxCell>
        <mxCell id="jly2-alAHBMs2acxooKN-13" value="" style="graphMlID=e0;rounded=0;endArrow=block;strokeColor=#000080;strokeWidth=1.0;startArrow=oval;startFill=1;endFill=1;exitX=0.5;exitY=1;exitDx=0;exitDy=0;entryX=1;entryY=0.5;entryDx=0;entryDy=0;" parent="1" source="jly2-alAHBMs2acxooKN-1" target="yuuOsfnJKZDkI5HLaXq4-5" edge="1">
          <mxGeometry relative="1" as="geometry">
            <mxPoint x="880" y="1353.0818375889874" as="sourcePoint" />
            <mxPoint x="820" y="1390" as="targetPoint" />
          </mxGeometry>
        </mxCell>
        <mxCell id="jly2-alAHBMs2acxooKN-14" value="&lt;span style=&quot;color: rgb(0 , 0 , 128) ; font-family: &amp;quot;dialog&amp;quot; ; font-size: 16px ; background-color: rgb(248 , 249 , 250)&quot;&gt;&lt;b&gt;cbo&lt;/b&gt;:hasBiasedOpinion&lt;/span&gt;" style="text;html=1;align=center;verticalAlign=middle;resizable=0;points=[];labelBackgroundColor=#ffffff;" parent="jly2-alAHBMs2acxooKN-13" vertex="1" connectable="0">
          <mxGeometry x="-0.0174" y="2" relative="1" as="geometry">
            <mxPoint as="offset" />
          </mxGeometry>
        </mxCell>
        <mxCell id="jly2-alAHBMs2acxooKN-15" value="" style="graphMlID=e0;rounded=0;endArrow=block;strokeColor=#000080;strokeWidth=1.0;startArrow=oval;startFill=1;endFill=1;entryX=0.5;entryY=1;entryDx=0;entryDy=0;exitX=0.686;exitY=0.07;exitDx=0;exitDy=0;exitPerimeter=0;" parent="1" source="yuuOsfnJKZDkI5HLaXq4-5" target="jly2-alAHBMs2acxooKN-5" edge="1">
          <mxGeometry relative="1" as="geometry">
            <mxPoint x="630" y="1143.0818375889874" as="sourcePoint" />
            <mxPoint x="781" y="1143" as="targetPoint" />
          </mxGeometry>
        </mxCell>
        <mxCell id="jly2-alAHBMs2acxooKN-16" value="&lt;span style=&quot;color: rgb(0 , 0 , 128) ; font-family: &amp;quot;dialog&amp;quot; ; font-size: 16px ; background-color: rgb(248 , 249 , 250)&quot;&gt;&lt;b&gt;partof&lt;/b&gt;:isPartOf&lt;/span&gt;" style="text;html=1;align=center;verticalAlign=middle;resizable=0;points=[];labelBackgroundColor=#ffffff;" parent="jly2-alAHBMs2acxooKN-15" vertex="1" connectable="0">
          <mxGeometry x="-0.0174" y="2" relative="1" as="geometry">
            <mxPoint as="offset" />
          </mxGeometry>
        </mxCell>
        <mxCell id="jly2-alAHBMs2acxooKN-17" value="" style="graphMlID=e0;rounded=0;endArrow=block;strokeColor=#000080;strokeWidth=1.0;startArrow=oval;startFill=1;endFill=1;entryX=0.5;entryY=0;entryDx=0;entryDy=0;" parent="1" source="jly2-alAHBMs2acxooKN-3" target="jly2-alAHBMs2acxooKN-5" edge="1">
          <mxGeometry relative="1" as="geometry">
            <mxPoint x="420" y="1033.0818375889874" as="sourcePoint" />
            <mxPoint x="571" y="1033" as="targetPoint" />
          </mxGeometry>
        </mxCell>
        <mxCell id="jly2-alAHBMs2acxooKN-18" value="&lt;span style=&quot;color: rgb(0 , 0 , 128) ; font-family: &amp;quot;dialog&amp;quot; ; font-size: 16px ; background-color: rgb(248 , 249 , 250)&quot;&gt;&lt;b&gt;prov&lt;/b&gt;:wasGeneratedBy&lt;/span&gt;" style="text;html=1;align=center;verticalAlign=middle;resizable=0;points=[];labelBackgroundColor=#ffffff;" parent="jly2-alAHBMs2acxooKN-17" vertex="1" connectable="0">
          <mxGeometry x="-0.0174" y="2" relative="1" as="geometry">
            <mxPoint x="33" y="19" as="offset" />
          </mxGeometry>
        </mxCell>
        <mxCell id="jly2-alAHBMs2acxooKN-19" value="" style="graphMlID=e0;rounded=0;endArrow=block;strokeColor=#000080;strokeWidth=1.0;startArrow=oval;startFill=1;endFill=1;exitX=0.435;exitY=-0.036;exitDx=0;exitDy=0;exitPerimeter=0;" parent="1" source="jly2-alAHBMs2acxooKN-4" target="jly2-alAHBMs2acxooKN-2" edge="1">
          <mxGeometry relative="1" as="geometry">
            <mxPoint x="390" y="1093.0818375889874" as="sourcePoint" />
            <mxPoint x="541" y="1093" as="targetPoint" />
          </mxGeometry>
        </mxCell>
        <mxCell id="jly2-alAHBMs2acxooKN-20" value="&lt;span style=&quot;color: rgb(0 , 0 , 128) ; font-family: &amp;quot;dialog&amp;quot; ; font-size: 16px ; background-color: rgb(248 , 249 , 250)&quot;&gt;&lt;b&gt;rdfs&lt;/b&gt;:isSubclassOf&lt;/span&gt;" style="text;html=1;align=center;verticalAlign=middle;resizable=0;points=[];labelBackgroundColor=#ffffff;" parent="jly2-alAHBMs2acxooKN-19" vertex="1" connectable="0">
          <mxGeometry x="-0.0174" y="2" relative="1" as="geometry">
            <mxPoint as="offset" />
          </mxGeometry>
        </mxCell>
        <mxCell id="jly2-alAHBMs2acxooKN-21" value="" style="graphMlID=e0;rounded=0;endArrow=block;strokeColor=#000080;strokeWidth=1.0;startArrow=oval;startFill=1;endFill=1;entryX=0.5;entryY=1;entryDx=0;entryDy=0;exitX=0.135;exitY=0.03;exitDx=0;exitDy=0;exitPerimeter=0;" parent="1" source="yuuOsfnJKZDkI5HLaXq4-5" target="jly2-alAHBMs2acxooKN-31" edge="1">
          <mxGeometry relative="1" as="geometry">
            <mxPoint x="600" y="1390" as="sourcePoint" />
            <mxPoint x="456.97000000000025" y="1107" as="targetPoint" />
          </mxGeometry>
        </mxCell>
        <mxCell id="jly2-alAHBMs2acxooKN-22" value="&lt;font face=&quot;dialog&quot; color=&quot;#000080&quot;&gt;&lt;span style=&quot;font-size: 16px; background-color: rgb(248, 249, 250);&quot;&gt;&lt;b&gt;cbo:&lt;/b&gt;producesOutcomeEffect&lt;/span&gt;&lt;/font&gt;" style="text;html=1;align=center;verticalAlign=middle;resizable=0;points=[];labelBackgroundColor=#ffffff;" parent="jly2-alAHBMs2acxooKN-21" vertex="1" connectable="0">
          <mxGeometry x="-0.0174" y="2" relative="1" as="geometry">
            <mxPoint x="13" y="16" as="offset" />
          </mxGeometry>
        </mxCell>
        <mxCell id="jly2-alAHBMs2acxooKN-23" value="" style="graphMlID=e0;rounded=0;endArrow=block;strokeColor=#000080;strokeWidth=1.0;startArrow=oval;startFill=1;endFill=1;entryX=1;entryY=0.5;entryDx=0;entryDy=0;exitX=0;exitY=0.5;exitDx=0;exitDy=0;" parent="1" source="jly2-alAHBMs2acxooKN-3" target="jly2-alAHBMs2acxooKN-31" edge="1">
          <mxGeometry relative="1" as="geometry">
            <mxPoint x="720" y="1083" as="sourcePoint" />
            <mxPoint x="511.97000000000025" y="1085" as="targetPoint" />
          </mxGeometry>
        </mxCell>
        <mxCell id="jly2-alAHBMs2acxooKN-24" value="&lt;span style=&quot;color: rgb(0 , 0 , 128) ; font-family: &amp;quot;dialog&amp;quot; ; font-size: 16px ; background-color: rgb(248 , 249 , 250)&quot;&gt;&lt;b&gt;cbo&lt;/b&gt;:hasOutcomeEffect&lt;/span&gt;" style="text;html=1;align=center;verticalAlign=middle;resizable=0;points=[];labelBackgroundColor=#ffffff;" parent="jly2-alAHBMs2acxooKN-23" vertex="1" connectable="0">
          <mxGeometry x="-0.0174" y="2" relative="1" as="geometry">
            <mxPoint x="-12" y="-2" as="offset" />
          </mxGeometry>
        </mxCell>
        <mxCell id="jly2-alAHBMs2acxooKN-25" value="" style="graphMlID=e0;rounded=0;endArrow=block;strokeColor=#000080;strokeWidth=1.0;startArrow=oval;startFill=1;endFill=1;exitX=0.387;exitY=0.01;exitDx=0;exitDy=0;entryX=0;entryY=1;entryDx=0;entryDy=0;exitPerimeter=0;" parent="1" source="yuuOsfnJKZDkI5HLaXq4-5" target="jly2-alAHBMs2acxooKN-6" edge="1">
          <mxGeometry relative="1" as="geometry">
            <mxPoint x="630" y="1143.0818375889874" as="sourcePoint" />
            <mxPoint x="781" y="1143" as="targetPoint" />
          </mxGeometry>
        </mxCell>
        <mxCell id="jly2-alAHBMs2acxooKN-26" value="&lt;span style=&quot;color: rgb(0 , 0 , 128) ; font-family: &amp;quot;dialog&amp;quot; ; font-size: 16px ; background-color: rgb(248 , 249 , 250)&quot;&gt;&lt;b&gt;parameter&lt;/b&gt;:hasParameter&lt;/span&gt;" style="text;html=1;align=center;verticalAlign=middle;resizable=0;points=[];labelBackgroundColor=#ffffff;" parent="jly2-alAHBMs2acxooKN-25" vertex="1" connectable="0">
          <mxGeometry x="-0.0174" y="2" relative="1" as="geometry">
            <mxPoint as="offset" />
          </mxGeometry>
        </mxCell>
        <mxCell id="jly2-alAHBMs2acxooKN-27" value="" style="graphMlID=e2;rounded=0;endArrow=block;strokeColor=#008000;strokeWidth=1.0;startArrow=oval;startFill=0;endFill=0;entryX=0.123;entryY=0.414;entryDx=0;entryDy=0;entryPerimeter=0;exitX=1;exitY=0.5;exitDx=0;exitDy=0;" parent="1" source="jly2-alAHBMs2acxooKN-6" target="jly2-alAHBMs2acxooKN-33" edge="1">
          <mxGeometry relative="1" as="geometry">
            <mxPoint x="570" y="1143" as="sourcePoint" />
            <mxPoint x="1132.6120127157133" y="932.79" as="targetPoint" />
          </mxGeometry>
        </mxCell>
        <mxCell id="jly2-alAHBMs2acxooKN-28" value="&lt;span style=&quot;color: rgb(0 , 128 , 0) ; font-family: &amp;quot;dialog&amp;quot; ; font-size: 16px ; background-color: rgb(248 , 249 , 250)&quot;&gt;parameter:hasParameterDataValue&lt;/span&gt;" style="text;html=1;align=center;verticalAlign=middle;resizable=0;points=[];labelBackgroundColor=#ffffff;" parent="jly2-alAHBMs2acxooKN-27" vertex="1" connectable="0">
          <mxGeometry x="-0.0896" y="3" relative="1" as="geometry">
            <mxPoint as="offset" />
          </mxGeometry>
        </mxCell>
        <mxCell id="jly2-alAHBMs2acxooKN-29" value="" style="graphMlID=e0;rounded=0;endArrow=block;strokeColor=#000080;strokeWidth=1.0;startArrow=oval;startFill=1;endFill=1;exitX=0.5;exitY=1;exitDx=0;exitDy=0;entryX=0.373;entryY=0.048;entryDx=0;entryDy=0;entryPerimeter=0;" parent="1" source="jly2-alAHBMs2acxooKN-6" target="jly2-alAHBMs2acxooKN-3" edge="1">
          <mxGeometry relative="1" as="geometry">
            <mxPoint x="630" y="1143.0818375889874" as="sourcePoint" />
            <mxPoint x="781" y="1143" as="targetPoint" />
          </mxGeometry>
        </mxCell>
        <mxCell id="jly2-alAHBMs2acxooKN-30" value="&lt;span style=&quot;color: rgb(0 , 0 , 128) ; font-family: &amp;quot;dialog&amp;quot; ; font-size: 16px ; background-color: rgb(248 , 249 , 250)&quot;&gt;&lt;b&gt;aff:&lt;/b&gt;influencedBy&lt;/span&gt;" style="text;html=1;align=center;verticalAlign=middle;resizable=0;points=[];labelBackgroundColor=#ffffff;" parent="jly2-alAHBMs2acxooKN-29" vertex="1" connectable="0">
          <mxGeometry x="-0.0174" y="2" relative="1" as="geometry">
            <mxPoint as="offset" />
          </mxGeometry>
        </mxCell>
        <mxCell id="jly2-alAHBMs2acxooKN-31" value="dbr:Success&#xa;(Winning Bet)" style="graphMlID=n4;shape=rect;rounded=1;arcsize=30;fillColor=#ffff00;strokeColor=#000000;strokeWidth=1.0;fontStyle=1" parent="1" vertex="1">
          <mxGeometry x="348.03" y="1080" width="121.97" height="44" as="geometry" />
        </mxCell>
        <mxCell id="jly2-alAHBMs2acxooKN-33" value="&quot;High&quot;^^xsd:string" style="graphMlID=n6;shape=parallelogram;fillColor=#ccffcc;strokeColor=#000000;strokeWidth=1.0;fontStyle=1" parent="1" vertex="1">
          <mxGeometry x="1210" y="938.5" width="146.09" height="43" as="geometry" />
        </mxCell>
        <mxCell id="yuuOsfnJKZDkI5HLaXq4-5" value="cbo:NextChance-BasedOccurence&#xa;(Football Team Match Bet)" style="graphMlID=n4;shape=rect;rounded=1;arcsize=30;fillColor=#ffff00;strokeColor=#000000;strokeWidth=1.0;fontStyle=1" parent="1" vertex="1">
          <mxGeometry x="580" y="1395" width="210" height="40" as="geometry" />
        </mxCell>
        <mxCell id="yuuOsfnJKZDkI5HLaXq4-6" value="" style="graphMlID=e0;rounded=0;endArrow=block;strokeColor=#000080;strokeWidth=1.0;startArrow=oval;startFill=1;endFill=1;exitX=0;exitY=0.5;exitDx=0;exitDy=0;" parent="1" source="yuuOsfnJKZDkI5HLaXq4-5" target="jly2-alAHBMs2acxooKN-4" edge="1">
          <mxGeometry relative="1" as="geometry">
            <mxPoint x="480" y="1433.0818375889874" as="sourcePoint" />
            <mxPoint x="631" y="1433" as="targetPoint" />
          </mxGeometry>
        </mxCell>
        <mxCell id="yuuOsfnJKZDkI5HLaXq4-7" value="&lt;span style=&quot;color: rgb(0 , 0 , 128) ; font-family: &amp;quot;dialog&amp;quot; ; font-size: 16px ; background-color: rgb(248 , 249 , 250)&quot;&gt;&lt;b&gt;rdfs&lt;/b&gt;:subClassOf&lt;/span&gt;" style="text;html=1;align=center;verticalAlign=middle;resizable=0;points=[];labelBackgroundColor=#ffffff;" parent="yuuOsfnJKZDkI5HLaXq4-6" vertex="1" connectable="0">
          <mxGeometry x="-0.0174" y="2" relative="1" as="geometry">
            <mxPoint as="offset" />
          </mxGeometry>
        </mxCell>
        <mxCell id="OftQGMBIE8UBg3ePWbUr-3" value="fs:People" style="graphMlID=n4;shape=rect;rounded=1;arcsize=30;fillColor=#ffff00;strokeColor=#000000;strokeWidth=1.0;fontStyle=1" parent="1" vertex="1">
          <mxGeometry x="1470" y="1110" width="81.96822102864604" height="44" as="geometry" />
        </mxCell>
        <mxCell id="OftQGMBIE8UBg3ePWbUr-4" value="" style="graphMlID=e0;rounded=0;endArrow=block;strokeColor=#000080;strokeWidth=1.0;startArrow=oval;startFill=1;endFill=1;exitX=0.565;exitY=-0.035;exitDx=0;exitDy=0;exitPerimeter=0;" parent="1" source="jly2-alAHBMs2acxooKN-1" target="OftQGMBIE8UBg3ePWbUr-3" edge="1">
          <mxGeometry relative="1" as="geometry">
            <mxPoint x="1530" y="1290" as="sourcePoint" />
            <mxPoint x="1644" y="1194" as="targetPoint" />
          </mxGeometry>
        </mxCell>
        <mxCell id="OftQGMBIE8UBg3ePWbUr-5" value="&lt;span style=&quot;color: rgb(0 , 0 , 128) ; font-family: &amp;quot;dialog&amp;quot; ; font-size: 16px ; background-color: rgb(248 , 249 , 250)&quot;&gt;&lt;b&gt;rdfs&lt;/b&gt;:subClassOf&lt;/span&gt;" style="text;html=1;align=center;verticalAlign=middle;resizable=0;points=[];labelBackgroundColor=#ffffff;" parent="OftQGMBIE8UBg3ePWbUr-4" vertex="1" connectable="0">
          <mxGeometry x="-0.0174" y="2" relative="1" as="geometry">
            <mxPoint as="offset" />
          </mxGeometry>
        </mxCell>
      </root>
    </mxGraphModel>
  </diagram>
</mxfile>
